<?xml version="1.0" standalone="no"?>
<!DOCTYPE svg PUBLIC "-//W3C//DTD SVG 20010904//EN"
 "http://www.w3.org/TR/2001/REC-SVG-20010904/DTD/svg10.dtd">
<svg version="1.0" xmlns="http://www.w3.org/2000/svg"
 width="1024.000000pt" height="1024.000000pt" viewBox="0 0 1024.000000 1024.000000"
 preserveAspectRatio="xMidYMid meet">

<g transform="translate(0.000000,1024.000000) scale(0.100000,-0.100000)"
fill="#000000" stroke="none">
<path d="M3550 7012 c-34 -34 -33 -28 -60 -432 -11 -162 -22 -317 -25 -345 -3
-27 -10 -117 -15 -200 -6 -82 -33 -478 -61 -880 -57 -825 -59 -923 -16 -1088
96 -364 383 -648 763 -754 l99 -28 875 0 875 0 94 24 c328 82 575 282 724 582
90 183 110 362 83 739 -9 124 -27 387 -41 585 -13 198 -29 428 -35 510 -60
873 -90 1246 -101 1266 -27 52 68 49 -1592 49 l-1539 0 -28 -28z m583 -294 c3
-104 10 -164 26 -222 93 -336 368 -606 711 -698 74 -20 108 -23 255 -22 195 1
271 16 412 83 255 122 443 330 528 584 35 106 58 265 50 350 l-7 67 216 0
c165 0 218 -3 221 -12 2 -7 16 -188 30 -403 33 -486 53 -776 105 -1510 27
-369 39 -608 36 -656 -31 -388 -306 -702 -696 -794 -93 -21 -1679 -23 -1792
-1 -319 61 -581 303 -673 623 -46 158 -46 165 60 1633 8 113 22 304 30 425 9
121 22 312 30 425 8 113 15 220 15 238 l0 32 219 0 219 0 5 -142z m1793 106
c4 -21 4 -76 1 -123 -24 -347 -265 -631 -617 -728 -91 -25 -302 -24 -385 1
-300 90 -508 292 -585 568 -23 82 -36 227 -26 282 l7 36 799 0 799 0 7 -36z"/>
</g>
</svg>
